<svg width="1440" height="972" viewBox="0 0 1440 972" fill="none" xmlns="http://www.w3.org/2000/svg">
<g opacity="0.1">
<path d="M393.662 0V572.503L0 679.891" stroke="white" stroke-width="0.152099" stroke-linecap="round" stroke-linejoin="round"/>
<path d="M457.421 0V572.503L0 728.469" stroke="white" stroke-width="0.152099" stroke-linecap="round" stroke-linejoin="round"/>
<path d="M521.18 0.000488281V572.504L0 809.408" stroke="white" stroke-width="0.152099" stroke-linecap="round" stroke-linejoin="round"/>
<path d="M584.908 0V572.497L14.8457 971.001" stroke="white" stroke-width="0.152099" stroke-linecap="round" stroke-linejoin="round"/>
<path d="M648.705 0V572.503L356.133 971.012" stroke="white" stroke-width="0.152099" stroke-linecap="round" stroke-linejoin="round"/>
<path d="M727.306 0V572.503L726.807 971.012" stroke="white" stroke-width="0.152099" stroke-linecap="round" stroke-linejoin="round"/>
<path d="M791.08 0V572.503L1082.64 971.012" stroke="white" stroke-width="0.152099" stroke-linecap="round" stroke-linejoin="round"/>
<path d="M854.83 0V572.503L1438.46 971.012" stroke="white" stroke-width="0.152099" stroke-linecap="round" stroke-linejoin="round"/>
<path d="M918.596 0V572.503L1440 809.779" stroke="white" stroke-width="0.152099" stroke-linecap="round" stroke-linejoin="round"/>
<path d="M982.354 0V572.503L1440 728.676" stroke="white" stroke-width="0.152099" stroke-linecap="round" stroke-linejoin="round"/>
<path d="M1046.11 0V572.503L1439.99 680.026" stroke="white" stroke-width="0.152099" stroke-linecap="round" stroke-linejoin="round"/>
<path d="M1109.88 0V572.503L1440 647.596" stroke="white" stroke-width="0.152099" stroke-linecap="round" stroke-linejoin="round"/>
<path d="M1173.64 0V572.503L1440 624.436" stroke="white" stroke-width="0.152099" stroke-linecap="round" stroke-linejoin="round"/>
<path d="M1237.39 0V572.503L1440 607.066" stroke="white" stroke-width="0.152099" stroke-linecap="round" stroke-linejoin="round"/>
<path d="M1301.16 0V572.503L1440 593.555" stroke="white" stroke-width="0.152099" stroke-linecap="round" stroke-linejoin="round"/>
<path d="M1364.91 0V572.503L1439.99 582.75" stroke="white" stroke-width="0.152099" stroke-linecap="round" stroke-linejoin="round"/>
<path d="M1428.67 0V572.503L1440 573.906" stroke="white" stroke-width="0.152099" stroke-linecap="round" stroke-linejoin="round"/>
<path d="M0 624.365L266.14 572.503V0" stroke="white" stroke-width="0.152099" stroke-linecap="round" stroke-linejoin="round"/>
<path d="M329.899 0.000488281V572.504L0 647.503" stroke="white" stroke-width="0.152099" stroke-linecap="round" stroke-linejoin="round"/>
<path d="M217.229 0.000488281V572.504L14.8457 607.015" stroke="white" stroke-width="0.152099" stroke-linecap="round" stroke-linejoin="round"/>
<path d="M153.462 0V572.503L14.8457 593.512" stroke="white" stroke-width="0.152099" stroke-linecap="round" stroke-linejoin="round"/>
<path d="M89.7051 0.000488281V572.504L14.8457 582.713" stroke="white" stroke-width="0.152099" stroke-linecap="round" stroke-linejoin="round"/>
<path d="M25.9397 0.000488281V572.504L14.8457 573.88" stroke="white" stroke-width="0.152099" stroke-linecap="round" stroke-linejoin="round"/>
<path d="M14.8457 529.062H1440" stroke="white" stroke-width="0.152099" stroke-linecap="round" stroke-linejoin="round"/>
<path d="M14.8457 485.617H1440" stroke="white" stroke-width="0.152099" stroke-linecap="round" stroke-linejoin="round"/>
<path d="M14.8457 442.176H1440" stroke="white" stroke-width="0.152099" stroke-linecap="round" stroke-linejoin="round"/>
<path d="M14.8457 398.735H1440" stroke="white" stroke-width="0.152099" stroke-linecap="round" stroke-linejoin="round"/>
<path d="M14.8457 355.289H1440" stroke="white" stroke-width="0.152099" stroke-linecap="round" stroke-linejoin="round"/>
<path d="M14.8457 311.848H1440" stroke="white" stroke-width="0.152099" stroke-linecap="round" stroke-linejoin="round"/>
<path d="M14.8457 268.407H1440" stroke="white" stroke-width="0.152099" stroke-linecap="round" stroke-linejoin="round"/>
<path d="M14.8457 224.961H1440" stroke="white" stroke-width="0.152099" stroke-linecap="round" stroke-linejoin="round"/>
<path d="M14.8457 181.521H1440" stroke="white" stroke-width="0.152099" stroke-linecap="round" stroke-linejoin="round"/>
<path d="M14.8457 138.079H1440" stroke="white" stroke-width="0.152099" stroke-linecap="round" stroke-linejoin="round"/>
<path d="M14.8457 94.6337H1440" stroke="white" stroke-width="0.152099" stroke-linecap="round" stroke-linejoin="round"/>
<path d="M14.8457 51.1932H1440" stroke="white" stroke-width="0.152099" stroke-linecap="round" stroke-linejoin="round"/>
<path d="M14.8457 7.74742H1440" stroke="white" stroke-width="0.152099" stroke-linecap="round" stroke-linejoin="round"/>
<path d="M1440 763.632H14.8457" stroke="white" stroke-width="0.152099" stroke-linecap="round" stroke-linejoin="round"/>
<path d="M1440 730.052H14.8457" stroke="white" stroke-width="0.152099" stroke-linecap="round" stroke-linejoin="round"/>
<path d="M1440 703.712H14.8457" stroke="white" stroke-width="0.152099" stroke-linecap="round" stroke-linejoin="round"/>
<path d="M1440 807.896H14.8457" stroke="white" stroke-width="0.152099" stroke-linecap="round" stroke-linejoin="round"/>
<path d="M1440 682.491H14.8457" stroke="white" stroke-width="0.152099" stroke-linecap="round" stroke-linejoin="round"/>
<path d="M1440 665.032H14.8457" stroke="white" stroke-width="0.152099" stroke-linecap="round" stroke-linejoin="round"/>
<path d="M1440 576.407H14.8457" stroke="white" stroke-width="0.152099" stroke-linecap="round" stroke-linejoin="round"/>
<path d="M1440 572.504H14.8457" stroke="white" stroke-width="0.152099" stroke-linecap="round" stroke-linejoin="round"/>
<path d="M1440 585.369H14.8457" stroke="white" stroke-width="0.152099" stroke-linecap="round" stroke-linejoin="round"/>
<path d="M1440 580.679H14.8457" stroke="white" stroke-width="0.152099" stroke-linecap="round" stroke-linejoin="round"/>
<path d="M1425.15 627.322H0" stroke="white" stroke-width="0.152099" stroke-linecap="round" stroke-linejoin="round"/>
<path d="M1440 650.414H14.8457" stroke="white" stroke-width="0.152099" stroke-linecap="round" stroke-linejoin="round"/>
<path d="M1440 868.923H14.8457" stroke="white" stroke-width="0.152099" stroke-linecap="round" stroke-linejoin="round"/>
<path d="M1440 596.296H14.8457" stroke="white" stroke-width="0.152099" stroke-linecap="round" stroke-linejoin="round"/>
<path d="M1440 590.55H14.8457" stroke="white" stroke-width="0.152099" stroke-linecap="round" stroke-linejoin="round"/>
<path d="M1425.15 618.045H0" stroke="white" stroke-width="0.152099" stroke-linecap="round" stroke-linejoin="round"/>
<path d="M1440 609.902H14.8457" stroke="white" stroke-width="0.152099" stroke-linecap="round" stroke-linejoin="round"/>
<path d="M1440 602.705H14.8457" stroke="white" stroke-width="0.152099" stroke-linecap="round" stroke-linejoin="round"/>
<path d="M1425.15 637.999H0" stroke="white" stroke-width="0.152099" stroke-linecap="round" stroke-linejoin="round"/>
</g>
</svg>
